<svg xmlns="http://www.w3.org/2000/svg" width="62.903" height="66.842" viewBox="0 0 62.903 66.842">
  <g id="Group_133" data-name="Group 133" transform="translate(-174.549 -6135.711)">
    <path id="Path_136" data-name="Path 136" d="M27.514-65.166a7,7,0,0,0,7-7V-72.4a9.061,9.061,0,0,1,9.061-9.061A9.061,9.061,0,0,1,52.639-72.4a9.061,9.061,0,0,1-9.061,9.061,7.166,7.166,0,0,0-7.166,7.166,7.166,7.166,0,0,0,7.166,7.166l.064-.014A9.306,9.306,0,0,1,52.767-39.9a9.125,9.125,0,0,1-9.125,9.125,6.959,6.959,0,0,0-7.1,7.106,9.19,9.19,0,0,1-9.046,9.046,9.046,9.046,0,0,1-9.046-9.046,9.046,9.046,0,0,1,9.046-9.046A7.032,7.032,0,0,0,34.517-39.9a7,7,0,0,0-7.026-7.144,9.046,9.046,0,0,1-9.046-9.046,9.046,9.046,0,0,1,9.046-9.046Z" transform="translate(171.238 6217.173)"/>
    <path id="Path_137" data-name="Path 137" d="M0-32.8a9.125,9.125,0,0,0,9.125,9.125A9.125,9.125,0,0,0,18.25-32.8a9.125,9.125,0,0,0-9.125-9.125A9.125,9.125,0,0,0,0-32.8" transform="translate(174.549 6210.078)"/>
    <path id="Path_138" data-name="Path 138" d="M54.42-52.385a9.125,9.125,0,0,0,9.125,9.125,9.125,9.125,0,0,0,9.125-9.125,9.125,9.125,0,0,0-9.125-9.125,9.125,9.125,0,0,0-9.125,9.125" transform="translate(164.781 6213.592)"/>
  </g>
</svg>
