<svg xmlns="http://www.w3.org/2000/svg" xmlns:xlink="http://www.w3.org/1999/xlink" width="215.889" height="57.525" viewBox="0 0 215.889 57.525">
  <defs>
    <clipPath id="clip-path">
      <path id="Path_114" data-name="Path 114" d="M0-27.475H215.889V-85H0Z" transform="translate(0 85)" fill="none"/>
    </clipPath>
    <clipPath id="clip-path-2">
      <path id="Path_119" data-name="Path 119" d="M0-27.428H215.275V-84.854H0Z" transform="translate(0 84.854)" fill="none"/>
    </clipPath>
  </defs>
  <g id="Group_108" data-name="Group 108" transform="translate(-99.907 -5639.541)">
    <g id="Group_56" data-name="Group 56" transform="translate(99.907 5639.541)" opacity="0.2" clip-path="url(#clip-path)">
      <path id="Path_106" data-name="Path 106" d="M82.608-84.6H77.3v25.935h29.778v-4.356H82.608V-69.46h24.469v-4.356H82.608v-6.431h24.469V-84.6Z" transform="translate(-24.985 84.872)" fill="#020407"/>
      <path id="Path_107" data-name="Path 107" d="M147.736-84.6v25.935h29.778v-4.585H153.046V-84.6Z" transform="translate(-47.753 84.872)" fill="#020407"/>
      <path id="Path_108" data-name="Path 108" d="M32.456-84.853,19.239-59.724,6.022-84.853H0L13.817-58.585H24.661L38.477-84.853Z" transform="translate(0 84.952)" fill="#020407"/>
      <path id="Path_109" data-name="Path 109" d="M273.51-84.853,259.2-58.585h6.236l13.693-25.129,13.689,25.129h6.239L284.745-84.853Z" transform="translate(-83.782 84.952)" fill="#020407"/>
      <path id="Path_110" data-name="Path 110" d="M218.672-84.6H198.9v4.585h14.462v21.351h5.309V-80.018h14.489V-84.6Z" transform="translate(-64.291 84.872)" fill="#020407"/>
      <path id="Path_111" data-name="Path 111" d="M56.373-29.835v19.7H72.537l.5-2.95H59.874V-18.8H71.819v-2.954H59.874v-5.128H72.424v-2.95Z" transform="translate(-18.222 67.169)" fill="#010306"/>
      <path id="Path_112" data-name="Path 112" d="M102.2-29.835v14.869L89.872-29.835H86.614v19.7h3.392V-25.007l12.332,14.869h3.255v-19.7Z" transform="translate(-27.996 67.169)" fill="#010306"/>
      <path id="Path_113" data-name="Path 113" d="M122.239-29.835v19.7h16.168l.5-2.95H125.74V-18.8h11.945v-2.954H125.74v-5.128h12.554v-2.95Z" transform="translate(-39.512 67.169)" fill="#010306"/>
    </g>
    <g id="Group_57" data-name="Group 57" transform="translate(99.907 5639.639)" opacity="0.2" clip-path="url(#clip-path-2)">
      <path id="Path_115" data-name="Path 115" d="M161.668-20.7a6.359,6.359,0,0,0,3.518-.773,2.689,2.689,0,0,0,1.145-2.4,2.661,2.661,0,0,0-1.091-2.383,6.47,6.47,0,0,0-3.518-.732h-5.874V-20.7Zm5.3,10.568-4.441-7.754a3.871,3.871,0,0,1-.482.027h-6.192v7.727h-3.368v-19.7h9.409q7.913,0,7.915,5.983a5.145,5.145,0,0,1-3.86,5.3l4.964,8.417Z" transform="translate(-49.287 67.069)" fill="#010306"/>
      <path id="Path_116" data-name="Path 116" d="M199.536-17.991h-5.986v-2.9h9.269v8.3a13.3,13.3,0,0,1-4.233,2,18.716,18.716,0,0,1-5.145.7,13.942,13.942,0,0,1-6.027-1.21,9.063,9.063,0,0,1-3.945-3.518,10.483,10.483,0,0,1-1.391-5.532,11.1,11.1,0,0,1,1.309-5.491,8.971,8.971,0,0,1,3.809-3.641,12.6,12.6,0,0,1,5.887-1.3,11.033,11.033,0,0,1,6.027,1.518,7.683,7.683,0,0,1,3.268,4.328l-3.477.5a4.817,4.817,0,0,0-2.123-2.609A7.512,7.512,0,0,0,193-27.673,7.173,7.173,0,0,0,187.6-25.7a7.575,7.575,0,0,0-1.915,5.5,7.267,7.267,0,0,0,2,5.5,8.023,8.023,0,0,0,5.778,1.918,12.815,12.815,0,0,0,6.068-1.268Z" transform="translate(-58.853 67.307)" fill="#010306"/>
      <path id="Path_117" data-name="Path 117" d="M218.715-32.484h3.5v19.7h-3.5Zm2.65-1.627h-3.337l4.079-3.918h4.113Z" transform="translate(-70.474 69.719)" fill="#010306"/>
      <path id="Path_118" data-name="Path 118" d="M239.766-26.5l-3.973,8.551h7.891Zm7.477,16.359-2.263-4.94h-10.4l-2.291,4.94h-3.668l9.3-19.7h3.809l9.3,19.7Z" transform="translate(-73.898 67.07)" fill="#010306"/>
    </g>
    <rect id="Rectangle_11" data-name="Rectangle 11" width="215.889" height="57.525" transform="translate(99.907 5639.541)" fill="none" opacity="0.2"/>
    <path id="Path_120" data-name="Path 120" d="M0-27.427H215.275V-84.853H0Z" transform="translate(99.907 5724.493)" fill="none" opacity="0.2"/>
  </g>
</svg>
