<svg xmlns="http://www.w3.org/2000/svg" width="52.207" height="88.532" viewBox="0 0 52.207 88.532">
  <g id="Group_98" data-name="Group 98" transform="translate(-163.397 -4321.753)">
    <path id="Path_68" data-name="Path 68" d="M0-83.844a3.493,3.493,0,0,0,.238-.571c.279-1.23.542-2.463.813-3.695.029-.13.076-.256.112-.374a5.264,5.264,0,0,1,5.723,5.07c0,1.806,0,3.613,0,5.419v.691l.813.1a5.784,5.784,0,0,1,3.791,1.956,4.4,4.4,0,0,1,1.118,2.986q-.009,2.8,0,5.594c0,.208.043.417.064.626l.011-.005a3.042,3.042,0,0,1-1.6-.059,6.69,6.69,0,0,1-4.009-2.307,5.12,5.12,0,0,1-1.135-4.522c.253-1.2.515-2.391.771-3.587.044-.206.08-.414.131-.684-.31-.034-.593-.064-.876-.1a6.984,6.984,0,0,1-4.244-1.986,5.521,5.521,0,0,1-1.5-2.593A2.308,2.308,0,0,0,0-82.326v-1.518" transform="translate(163.397 4410.285)"/>
    <path id="Path_69" data-name="Path 69" d="M0-59.912c.912.008,1.824.019,2.737.025a7.83,7.83,0,0,1,7.482,5.678,5.854,5.854,0,0,1,.277,2.046c-.052.035-.083.075-.114.074a15.728,15.728,0,0,1-4.517-.237A7.711,7.711,0,0,1,.229-58.332,6.028,6.028,0,0,0,0-58.978v-.934" transform="translate(163.397 4410.285)"/>
    <path id="Path_70" data-name="Path 70" d="M26.154,0c-.244-.2-.382-.3-.509-.409Q17.613-7.491,9.579-14.57a.835.835,0,0,1-.321-.851c.512-3.5,1-7,1.5-10.506q.583-4.1,1.168-8.2a.838.838,0,0,1,.055-.157c1.373.689,6.187,6.9,8.293,10.72A46.966,46.966,0,0,1,26.154,0" transform="translate(163.397 4410.285)"/>
    <path id="Path_71" data-name="Path 71" d="M39.645-66.02c.012-.271.035-.542.036-.812,0-1.653,0-3.306,0-4.959a5.1,5.1,0,0,1,4.233-5.287c.471-.106.956-.153,1.5-.237v-.626c0-1.828.013-3.656,0-5.484a4.6,4.6,0,0,1,1.784-3.759,5.923,5.923,0,0,1,3.9-1.349,2.176,2.176,0,0,1,.132.329q.424,1.935.838,3.873A5.278,5.278,0,0,1,50.2-78.948a6.878,6.878,0,0,1-3.969,1.657c-.247.024-.494.053-.792.085.209.977.406,1.9.6,2.827.1.475.209.948.308,1.424A5.176,5.176,0,0,1,44.843-68,6.937,6.937,0,0,1,39.9-65.965a1.055,1.055,0,0,1-.273-.069Z" transform="translate(163.397 4410.285)"/>
    <path id="Path_72" data-name="Path 72" d="M18.285-54.616a2.582,2.582,0,0,1,2.459,1.249,3.97,3.97,0,0,1,.4.838,42.746,42.746,0,0,1,2.8,11.574c.126,1.334.164,2.676.24,4.014.008.134,0,.268,0,.392a19.77,19.77,0,0,0,3.9.056c.011-.177.03-.365.032-.553A44.259,44.259,0,0,1,31.182-52.63a2.943,2.943,0,0,1,2.132-1.963A3.685,3.685,0,0,1,34-54.627l-.019-.02a49.586,49.586,0,0,0-2.931,9.564,52.329,52.329,0,0,0-1,9.9A3.882,3.882,0,0,1,26.7-31.244a3.892,3.892,0,0,1-4.411-3.294c-.08-.673-.072-1.358-.089-2.037a50.433,50.433,0,0,0-3.765-17.8,2.74,2.74,0,0,0-.136-.256Z" transform="translate(163.397 4410.285)"/>
    <path id="Path_73" data-name="Path 73" d="M18.3-54.634a7.909,7.909,0,0,1-3.574-.913,5.713,5.713,0,0,1-3.087-4.01A4.905,4.905,0,0,1,11.6-61.29c.27-1.507.628-3,.956-4.5a1.2,1.2,0,0,1,.123-.257l-.01,0c.343.055.684.107,1.025.167a5.711,5.711,0,0,1,3.765,2.232,4.091,4.091,0,0,1,.86,2.435c.016,2.12.009,4.241.009,6.361a1.075,1.075,0,0,1-.048.226l.016-.018" transform="translate(163.397 4410.285)"/>
    <path id="Path_74" data-name="Path 74" d="M39.629-66.033c.157.637.321,1.272.468,1.911.178.774.346,1.551.512,2.329a5.332,5.332,0,0,1-2.079,5.613,7.25,7.25,0,0,1-4.545,1.533l.019.02a.4.4,0,0,1-.034-.11c0-2.21-.034-4.42.018-6.628A4.233,4.233,0,0,1,35.511-64.4a6.142,6.142,0,0,1,3.68-1.552c.153-.015.3-.041.455-.063l-.017-.015" transform="translate(163.397 4410.285)"/>
    <path id="Path_75" data-name="Path 75" d="M52.194-59.887A6.965,6.965,0,0,1,51.3-56.22a7.62,7.62,0,0,1-6.877,4.151c-.852.018-1.705,0-2.579,0a3.391,3.391,0,0,1,.09-1.578,7.83,7.83,0,0,1,7.572-6.242c.871-.007,1.741,0,2.683,0" transform="translate(163.397 4410.285)"/>
    <path id="Path_76" data-name="Path 76" d="M15.735-46.85a2.593,2.593,0,0,1,2.6,2.586,2.6,2.6,0,0,1-2.619,2.631,2.609,2.609,0,0,1-2.606-2.591,2.6,2.6,0,0,1,2.625-2.627" transform="translate(163.397 4410.285)"/>
    <path id="Path_77" data-name="Path 77" d="M36.56-46.85a2.606,2.606,0,0,1,2.629,2.623,2.613,2.613,0,0,1-2.6,2.594,2.6,2.6,0,0,1-2.621-2.628,2.592,2.592,0,0,1,2.6-2.589" transform="translate(163.397 4410.285)"/>
  </g>
</svg>
