<svg xmlns="http://www.w3.org/2000/svg" xmlns:xlink="http://www.w3.org/1999/xlink" width="245.169" height="76.499" viewBox="0 0 245.169 76.499">
  <defs>
    <clipPath id="clip-path">
      <path id="Path_45" data-name="Path 45" d="M0,0H245.169V-76.5H0Z" fill="none"/>
    </clipPath>
  </defs>
  <g id="Group_11" data-name="Group 11" transform="translate(0 76.499)" opacity="0.2" clip-path="url(#clip-path)">
    <path id="Path_40" data-name="Path 40" d="M57.109-35.2c0,16.027-10.729,28.114-25.6,28.114C16.592-7.085,5.821-19.172,5.821-35.2V-76.5H0v41.3C0-15.85,13.549-1.262,31.513-1.262,49.424-1.262,62.93-15.85,62.93-35.2V-76.5H57.109Z" fill="#030404"/>
    <path id="Path_41" data-name="Path 41" d="M97.864-56.726c-7.808,0-13.376,3.564-16.336,10.381v-9.119H76.021v54.2h5.611V-26.048c0-11.387,2.8-24.963,16.126-24.963a24.671,24.671,0,0,1,4.988.615l.973.2v-5.99l-.675-.113a31.469,31.469,0,0,0-5.181-.429" fill="#030404"/>
    <path id="Path_42" data-name="Path 42" d="M160.994-28.363c0,13.582-8.751,23.067-21.28,23.067-12.854,0-21.49-9.27-21.49-23.067s8.636-23.067,21.49-23.067c12.529,0,21.28,9.485,21.28,23.067m-20.65-28.363c-9.78,0-17.848,4.252-21.911,11.317V-76.5h-5.611V-1.262h5.611V-11.15C122.41-4.271,130.6,0,140.345,0c15.585,0,26.469-11.665,26.469-28.363S155.93-56.726,140.345-56.726" fill="#030404"/>
    <path id="Path_43" data-name="Path 43" d="M194.982-31.672l23.685-23.792h-7.961L180.93-25.181V-76.5h-5.611V-1.262h5.611V-17.617L191.1-27.783,212.126-1.262h7.337Z" fill="#030404"/>
    <path id="Path_44" data-name="Path 44" d="M236.542-68.339c.972,0,1.477-.427,1.477-1.243v-.039c0-.894-.544-1.2-1.477-1.2h-1.088v2.487Zm-2.953-3.925h2.992c1.982,0,3.264.817,3.264,2.565v.038a2.249,2.249,0,0,1-1.748,2.293l2.253,3.614h-1.943l-2.06-3.3h-.894v3.3H233.59Zm10.025,4.353a6.846,6.846,0,0,0-7.072-7.189,6.878,6.878,0,0,0-7.072,7.228,6.879,6.879,0,0,0,7.072,7.15,6.912,6.912,0,0,0,7.072-7.188m-15.7.038a8.582,8.582,0,0,1,8.626-8.626,8.5,8.5,0,0,1,8.627,8.588,8.5,8.5,0,0,1-8.627,8.587,8.492,8.492,0,0,1-8.626-8.549" fill="#010101"/>
  </g>
</svg>
