<svg xmlns="http://www.w3.org/2000/svg" width="64.996" height="65.383" viewBox="0 0 64.996 65.383">
  <path id="Path_38" data-name="Path 38" d="M47.752-65.375v40.567L32.49-5.852,17.244-24.791v-40.55l-5.256,2.687L.218-21.216,0-20.46l.57.454L26.512.008l5.978-4.1,5.977,4.1L64.408-20.006,65-20.46l-.218-.756L52.84-62.4l-.067-.252ZM13.063-61.781l2.922-1.511v38.2L1.629-21.568Zm35.949,36.7V-63.259l2.7,1.461,11.653,40.23Zm-15.6,20.1L48.625-23.885l14.222,3.493L38.433-1.536ZM2.132-20.392l14.239-3.493L31.583-4.979,26.562-1.553Z" transform="translate(0 65.375)" fill="#10171f"/>
</svg>
