<svg id="Velta" xmlns="http://www.w3.org/2000/svg" width="236.977" height="28.883" viewBox="0 0 236.977 28.883">
  <path id="Path_5" data-name="Path 5" d="M65.125.192H59.281v28.52h32.78V23.92H65.125V16.843H92.061V12.05H65.125V4.984H92.061V.192Z" transform="translate(-1.695 -0.006)" fill="#f1f0ee"/>
  <path id="Path_6" data-name="Path 6" d="M113.3.192v28.52h32.78V23.67H119.147V.192Z" transform="translate(-3.24 -0.006)" fill="#f1f0ee"/>
  <path id="Path_7" data-name="Path 7" d="M35.727,0,21.178,27.632,6.628,0H0L15.209,28.883H27.146L42.356,0Z" transform="translate(0 0)" fill="#f1f0ee"/>
  <path id="Path_8" data-name="Path 8" d="M214.541,0,198.788,28.883h6.866L220.725,1.252,235.8,28.883h6.866L226.907,0Z" transform="translate(-5.684 0)" fill="#f1f0ee"/>
  <path id="Path_9" data-name="Path 9" d="M174.3.192H152.54V5.235h15.92V28.712H174.3V5.235h15.951V.192Z" transform="translate(-4.362 -0.006)" fill="#f1f0ee"/>
</svg>
