<svg xmlns="http://www.w3.org/2000/svg" xmlns:xlink="http://www.w3.org/1999/xlink" width="201.301" height="66.019" viewBox="0 0 201.301 66.019">
  <defs>
    <clipPath id="clip-path">
      <path id="Path_62" data-name="Path 62" d="M0,0H201.3V-66.018H0Z" fill="none"/>
    </clipPath>
  </defs>
  <g id="Group_23" data-name="Group 23" transform="translate(0 66.019)" opacity="0.2" clip-path="url(#clip-path)">
    <path id="Path_57" data-name="Path 57" d="M13.627-16.833c1.1.209,27.868.177,28.655-.032L28.5-51.194,13.627-16.833m-.977,2.417c-1,2.489-2.362,4.8-2.786,7.484a3.537,3.537,0,0,0,1.629,3.805,10.648,10.648,0,0,0,3.4,1.327c.271.07.546.127.867.2v.951H.059L0-1.5c.264-.1.487-.206.718-.282a8.74,8.74,0,0,0,5.12-4.048,55.117,55.117,0,0,0,2.554-5.026q8.69-19.968,17.326-39.959a4.536,4.536,0,0,0,.451-2.449,12.533,12.533,0,0,1-.011-1.507C30.194-57,34.418-58.97,38.6-61.141c.665,3.368,2.155,6.342,3.365,9.412q8.245,20.914,16.563,41.8a30.344,30.344,0,0,0,2.69,5.481,5.76,5.76,0,0,0,4.1,2.718,5.962,5.962,0,0,1,.613.154c.042.085.09.139.092.2.009.215,0,.431,0,.714H38.663L38.612-1.5a1.9,1.9,0,0,1,.364-.15c1.081-.181,2.177-.3,3.243-.54A4.331,4.331,0,0,0,45.8-5.962a4.824,4.824,0,0,0-.174-2.221c-.717-2.1-1.559-4.156-2.353-6.233Z"/>
    <path id="Path_58" data-name="Path 58" d="M201.3-1.571V-.6c-5.739,0-11.459,0-17.272,0,.206-1.5.406-2.885.584-4.274a14.925,14.925,0,0,0,.16-1.872q.013-23.773,0-47.547a8.567,8.567,0,0,0-.063-1.221c-.124-.857-.519-1.262-1.384-1.209a21.808,21.808,0,0,0-3.063.437c-.946.2-1.868.507-2.894.794v-1.283l19.857-9.244c-.126,1.285-.24,2.4-.342,3.508-.049.53-.107,1.063-.107,1.594q-.008,25.892.01,51.784a28.388,28.388,0,0,0,.326,3.74,4.043,4.043,0,0,0,3.057,3.452c.356.115.711.233,1.127.37"/>
    <path id="Path_59" data-name="Path 59" d="M176.4-1.552V-.66H159.146a6.211,6.211,0,0,1,.005-.822c.2-1.46.421-2.916.621-4.376a7.593,7.593,0,0,0,.058-1.031q0-23.53,0-47.061a9.565,9.565,0,0,0-.117-1.591c-.151-.887-.514-1.241-1.4-1.182a22.314,22.314,0,0,0-3.061.448c-.947.2-1.872.506-2.874.784v-1.28l19.856-9.245c-.064.766-.129,1.4-.169,2.042-.1,1.594-.266,3.189-.268,4.783q-.029,25.037,0,50.073a30.424,30.424,0,0,0,.276,3.463,4.206,4.206,0,0,0,3.3,3.776c.329.1.654.207,1.026.326"/>
    <path id="Path_60" data-name="Path 60" d="M124.424-25.514c.323.016.508.034.693.033,3.134-.021,6.268-.038,9.4-.07,1.629-.016,3.258-.06,4.886-.091a2.256,2.256,0,0,0,2.16-1.526,4.1,4.1,0,0,0,.245-.806,9.9,9.9,0,0,0-2.475-8.89,7.188,7.188,0,0,0-11.124.107,13.145,13.145,0,0,0-2.431,4.1,21.619,21.619,0,0,0-1.356,7.142m-.061,2.249c.1,1.162.148,2.216.282,3.26a19.128,19.128,0,0,0,2.631,7.78,14.482,14.482,0,0,0,12.541,7.239,27.227,27.227,0,0,0,4.686-.273,11.035,11.035,0,0,0,7.748-4.251l1.011.729c-.176.314-.329.611-.5.894a13.5,13.5,0,0,1-4.021,4.037,21.855,21.855,0,0,1-9.524,3.535,29.878,29.878,0,0,1-12.22-.713,19.84,19.84,0,0,1-12.969-10.5,19.466,19.466,0,0,1-1.868-9.033,19.027,19.027,0,0,1,8.457-16.159,24.328,24.328,0,0,1,7.135-3.524,27.164,27.164,0,0,1,14.761-.492,12.767,12.767,0,0,1,8.763,6.963,7.624,7.624,0,0,1,.315,6.293,6.056,6.056,0,0,1-5.09,4.064,15.146,15.146,0,0,1-2.155.15q-9.366.017-18.731.007h-1.249"/>
    <path id="Path_61" data-name="Path 61" d="M106.935-15.446,104.655-.653H67.57l-.046-.126c.209-.1.412-.211.628-.29A9.184,9.184,0,0,0,71.486-3.3a32.909,32.909,0,0,0,4.821-6.245c2.187-3.588,4.3-7.219,6.416-10.851q5.11-8.783,10.175-17.591c.167-.289.316-.588.532-.993-.363-.017-.6-.042-.837-.038-2.6.042-5.211.006-7.806.167a21.675,21.675,0,0,0-4.332.8,10.875,10.875,0,0,0-5.734,3.9,25.244,25.244,0,0,0-3.377,5.955A13.092,13.092,0,0,1,70.255-26l2.278-14.806c.7-.2,35.257-.261,36.654-.072l.038.783c-.113.079-.181.158-.263.178a5.992,5.992,0,0,0-3.252,2.13,38.636,38.636,0,0,0-2.93,4.026c-2.4,3.935-4.726,7.916-7.056,11.894q-5.35,9.133-10.666,18.286c-.157.269-.306.543-.507.9a4.118,4.118,0,0,0,.661.107c2.321-.035,4.647.008,6.96-.152a24.633,24.633,0,0,0,4.523-.8,10.952,10.952,0,0,0,6-4.156,25.355,25.355,0,0,0,3.118-5.566q.472-1.118.939-2.239l.186.044"/>
  </g>
</svg>
