<svg xmlns="http://www.w3.org/2000/svg" xmlns:xlink="http://www.w3.org/1999/xlink" width="223.833" height="58.533" viewBox="0 0 223.833 58.533">
  <defs>
    <clipPath id="clip-path">
      <path id="Path_141" data-name="Path 141" d="M0-49.468H223.291V-108H0Z" transform="translate(0 108)" fill="none"/>
    </clipPath>
    <clipPath id="clip-path-2">
      <path id="Path_156" data-name="Path 156" d="M0-49.324H222.853v-58.362H0Z" transform="translate(0 107.686)" fill="none"/>
    </clipPath>
  </defs>
  <g id="Group_103" data-name="Group 103" transform="translate(-107.531 -6511.47)" opacity="0.194">
    <g id="Group_75" data-name="Group 75" transform="translate(108.073 6511.47)" clip-path="url(#clip-path)">
      <path id="Path_140" data-name="Path 140" d="M20.955-107.686,14.56-97.878,8.21-107.686H.432l10.11,14.863L0-77.442H7.561l6.826-10.369,6.783,10.369h7.777L18.406-92.91l10.11-14.776Z" transform="translate(0 107.856)" fill="#020407"/>
    </g>
    <g id="Group_76" data-name="Group 76" transform="translate(108.073 6511.64)" clip-path="url(#clip-path-2)">
      <path id="Path_142" data-name="Path 142" d="M115.834-93a5.523,5.523,0,0,0,3.78-1.167,3.949,3.949,0,0,0,1.319-3.111v-.087a3.86,3.86,0,0,0-1.383-3.24,6.109,6.109,0,0,0-3.845-1.08h-6.61V-93Zm-13.395-14.691h13.826q5.747,0,8.813,3.068a9.339,9.339,0,0,1,2.593,6.913v.087a9.488,9.488,0,0,1-1.793,5.984,10.4,10.4,0,0,1-4.688,3.392l7.389,10.8H120.8L114.32-87.12h-5.227v9.678h-6.655Z" transform="translate(-46.92 107.686)" fill="#020407"/>
      <path id="Path_143" data-name="Path 143" d="M200.494-77.442h6.653v-30.244h-6.653Z" transform="translate(-91.833 107.686)" fill="#020407"/>
      <path id="Path_144" data-name="Path 144" d="M278.375-83.448a10.292,10.292,0,0,0,3.717-.648,8,8,0,0,0,2.872-1.858,8.721,8.721,0,0,0,1.857-2.851,9.642,9.642,0,0,0,.67-3.673v-.086a9.857,9.857,0,0,0-.67-3.673,8.614,8.614,0,0,0-1.857-2.895,8.264,8.264,0,0,0-2.872-1.88,9.98,9.98,0,0,0-3.717-.67h-5.141v18.233Zm-11.795-24.238h11.795a17.9,17.9,0,0,1,6.5,1.145,15.348,15.348,0,0,1,5.1,3.176,14.131,14.131,0,0,1,3.305,4.774,15.031,15.031,0,0,1,1.167,5.941v.087a15.181,15.181,0,0,1-1.167,5.962,14.058,14.058,0,0,1-3.305,4.8,15.592,15.592,0,0,1-5.1,3.2,17.586,17.586,0,0,1-6.5,1.167H266.581Z" transform="translate(-122.103 107.686)" fill="#020407"/>
      <path id="Path_145" data-name="Path 145" d="M368.781-107.686h22.77v5.919h-16.2v6.135h14.257v5.919H375.349v6.352h16.418v5.919H368.781Z" transform="translate(-168.914 107.686)" fill="#020407"/>
      <path id="Path_146" data-name="Path 146" d="M120.154-14.383V-29.657a.386.386,0,0,1,.389-.391h.964a.387.387,0,0,1,.39.391v15.274a.374.374,0,0,1-.39.39h-.964a.373.373,0,0,1-.389-.39" transform="translate(-55.035 72.125)" fill="#2b2e34"/>
      <path id="Path_147" data-name="Path 147" d="M130.23-10.7V-21.387a.369.369,0,0,1,.367-.391h.964a.387.387,0,0,1,.39.391v1.124A3.5,3.5,0,0,1,135.184-22c2.821,0,4.289,2.064,4.289,5.091V-10.7a.373.373,0,0,1-.39.39h-.963a.374.374,0,0,1-.391-.39v-6.329c0-2.226-1.169-3.442-2.89-3.442-1.7,0-2.89,1.216-2.89,3.442V-10.7a.373.373,0,0,1-.39.39H130.6a.356.356,0,0,1-.367-.39" transform="translate(-59.649 68.441)" fill="#2b2e34"/>
      <path id="Path_148" data-name="Path 148" d="M160.225-18.739v-2.088c0-2.042-1.192-3.326-2.958-3.326-1.835,0-2.936,1.331-2.936,3.464v1.949c0,2.133,1.124,3.44,2.936,3.44,1.788,0,2.958-1.329,2.958-3.44m0,4.357V-15.46a3.655,3.655,0,0,1-3.279,1.7c-2.523,0-4.358-1.789-4.358-5.137v-1.7c0-3.3,1.789-5.091,4.358-5.091a3.642,3.642,0,0,1,3.279,1.7v-5.664a.386.386,0,0,1,.39-.39h.963a.387.387,0,0,1,.391.39v15.274a.374.374,0,0,1-.391.39h-.963a.373.373,0,0,1-.39-.39" transform="translate(-69.89 72.125)" fill="#2b2e34"/>
      <path id="Path_149" data-name="Path 149" d="M185.178-21.194v10.688a.373.373,0,0,1-.389.391h-.964a.356.356,0,0,1-.367-.391v-1.008a3.44,3.44,0,0,1-3.188,1.628c-2.614,0-4.014-1.88-4.014-5.092v-6.215a.369.369,0,0,1,.367-.39h.963a.387.387,0,0,1,.39.39v6.331c0,2.224.94,3.44,2.637,3.44s2.844-1.216,2.844-3.44v-6.331a.368.368,0,0,1,.367-.39h.964a.387.387,0,0,1,.389.39" transform="translate(-80.731 68.249)" fill="#2b2e34"/>
      <path id="Path_150" data-name="Path 150" d="M198.056-13.2a.76.76,0,0,1,0-.23.3.3,0,0,1,.3-.23h.986c.206,0,.275.092.345.275a2.517,2.517,0,0,0,2.706,1.813c1.468,0,2.614-.482,2.614-1.836,0-2.982-6.766-.6-6.766-5.436,0-2.294,2.087-3.163,4.013-3.163,3.533,0,3.991,2.43,4.151,3.05a1.233,1.233,0,0,1,.023.16.342.342,0,0,1-.321.3h-.986c-.206,0-.275-.093-.345-.3-.16-.712-.527-1.72-2.569-1.72-1.031,0-2.293.366-2.293,1.629,0,3.119,6.766.779,6.766,5.459,0,2.454-1.972,3.349-4.312,3.349-2.614,0-4.083-1.515-4.311-3.119" transform="translate(-90.711 68.441)" fill="#2b2e34"/>
      <path id="Path_151" data-name="Path 151" d="M218.089-16.673v-5.872h-1.766a.354.354,0,0,1-.39-.366v-.8a.387.387,0,0,1,.39-.39c1.215,0,1.788-.274,1.788-1.72v-.87a.387.387,0,0,1,.391-.39h.894a.406.406,0,0,1,.413.39v2.59H222.4a.4.4,0,0,1,.39.39v.8a.366.366,0,0,1-.39.366h-2.592v5.688c0,2.065.229,2.614,2.133,2.614h.459a.387.387,0,0,1,.39.391v.825a.386.386,0,0,1-.39.39h-.666c-3.142,0-3.646-1.354-3.646-4.038" transform="translate(-98.904 70.768)" fill="#2b2e34"/>
      <path id="Path_152" data-name="Path 152" d="M233.46-10.507V-21.194a.369.369,0,0,1,.367-.391h.872a.409.409,0,0,1,.413.391v1.536a3.374,3.374,0,0,1,3.211-1.927h.344a.388.388,0,0,1,.39.391v.941a.356.356,0,0,1-.39.366h-.344c-2.294,0-3.143,1.927-3.143,3.808v5.573a.386.386,0,0,1-.39.39h-.964a.356.356,0,0,1-.367-.39" transform="translate(-106.932 68.249)" fill="#2b2e34"/>
      <path id="Path_153" data-name="Path 153" d="M248.662-14.441V-25.129a.369.369,0,0,1,.367-.391h.964a.388.388,0,0,1,.39.391v10.688a.373.373,0,0,1-.39.39h-.964a.356.356,0,0,1-.367-.39M250.681-29a1.12,1.12,0,0,1-1.17,1.17A1.1,1.1,0,0,1,248.364-29a1.1,1.1,0,0,1,1.147-1.171A1.12,1.12,0,0,1,250.681-29" transform="translate(-113.759 72.183)" fill="#2b2e34"/>
      <path id="Path_154" data-name="Path 154" d="M258.95-13.452c0,1.285,1.032,1.882,2.27,1.882h.46c2.408,0,2.913-1.744,2.913-3.1V-15.4h-3.027c-1.881,0-2.614.573-2.614,1.948m6.926,3.143h-.895a.373.373,0,0,1-.389-.39v-1.077a3.349,3.349,0,0,1-3.142,1.7h-.458c-2.088,0-3.693-1.1-3.693-3.373,0-2.706,2.11-3.371,4.221-3.371h3.073V-17.6c0-1.445-.252-2.868-2.638-2.868-1.812,0-2.248.711-2.431,1.675-.046.138-.115.3-.345.3h-.986a.325.325,0,0,1-.344-.346c0-.022.022-.091.022-.136.23-1.4,1.009-3.027,4.083-3.027,3.922,0,4.312,2.454,4.312,4.448V-10.7a.386.386,0,0,1-.39.39" transform="translate(-117.851 68.441)" fill="#2b2e34"/>
      <path id="Path_155" data-name="Path 155" d="M280.206-14.383V-29.657a.386.386,0,0,1,.389-.391h.964a.4.4,0,0,1,.391.391v15.274a.387.387,0,0,1-.391.39h-.964a.373.373,0,0,1-.389-.39" transform="translate(-128.343 72.125)" fill="#2b2e34"/>
    </g>
    <rect id="Rectangle_13" data-name="Rectangle 13" width="223.833" height="58.532" transform="translate(107.531 6511.47)" fill="none" opacity="0.2"/>
    <path id="Path_157" data-name="Path 157" d="M0-49.324H222.853v-58.362H0Z" transform="translate(108.073 6619.326)" fill="none"/>
  </g>
</svg>
