<svg xmlns="http://www.w3.org/2000/svg" width="67.043" height="63.237" viewBox="0 0 67.043 63.237">
  <g id="Group_97" data-name="Group 97" transform="translate(-155.979 -3856.632)">
    <path id="Path_64" data-name="Path 64" d="M67.036-57.675A5.175,5.175,0,0,1,65.361-53.6a6,6,0,0,1-7.9,0,5.171,5.171,0,0,1-1.675-4.078,5.172,5.172,0,0,1,1.675-4.078,6,6,0,0,1,7.9,0,5.179,5.179,0,0,1,1.675,4.078M9.422-.421H0V-25.339l9.422-1.5Z" transform="translate(155.979 3919.868)" fill="#1a1616"/>
    <path id="Path_65" data-name="Path 65" d="M49.078-.023A16.189,16.189,0,0,1,43.6-.673a9.882,9.882,0,0,1-4.047-2.308,7.641,7.641,0,0,1-2.023-3.6,19.432,19.432,0,0,1-.538-4.774V-47.968l9.421-1.517v36.229a12.314,12.314,0,0,0,.19,2.276,3.928,3.928,0,0,0,.727,1.708,3.849,3.849,0,0,0,1.55,1.138c.674.3.393.25,1.53.334Z" transform="translate(155.979 3919.868)" fill="#1a1616"/>
    <path id="Path_66" data-name="Path 66" d="M29.731-.023a16.189,16.189,0,0,1-5.483-.65A9.886,9.886,0,0,1,20.2-2.981a7.641,7.641,0,0,1-2.023-3.6,19.432,19.432,0,0,1-.538-4.774V-40.407l9.421-1.517v28.668a12.314,12.314,0,0,0,.19,2.276,3.928,3.928,0,0,0,.727,1.708,3.849,3.849,0,0,0,1.55,1.138c.673.3.393.25,1.53.334Z" transform="translate(155.979 3919.868)" fill="#1a1616"/>
  </g>
</svg>
