<svg xmlns="http://www.w3.org/2000/svg" xmlns:xlink="http://www.w3.org/1999/xlink" width="259" height="43" viewBox="0 0 259 43">
  <defs>
    <clipPath id="clip-path">
      <path id="Path_98" data-name="Path 98" d="M0,0H259V-42H0Z" fill="none"/>
    </clipPath>
    <clipPath id="clip-path-2">
      <path id="Path_104" data-name="Path 104" d="M0,0H258.25V-41.594H0Z" fill="none"/>
    </clipPath>
  </defs>
  <g id="Group_109" data-name="Group 109" transform="translate(-77 -5173.019)">
    <g id="Group_48" data-name="Group 48" transform="translate(77 5215.019)" opacity="0.2" clip-path="url(#clip-path)">
      <path id="Path_97" data-name="Path 97" d="M27.757-40.9,7.471-19.7V-40.9H0V-.677h7.47v-9.2l8.391-8.791L28.962-.677h8.277v-.4L20.86-23.894,36.721-40.5v-.4Z"/>
    </g>
    <g id="Group_49" data-name="Group 49" transform="translate(77 5215.019)" opacity="0.2" clip-path="url(#clip-path-2)">
      <path id="Path_99" data-name="Path 99" d="M42.352-16.883V-40.9h7.47v24.021c0,6.781,4.367,9.769,10.69,9.769,6.263,0,10.572-2.988,10.572-9.769V-40.9h7.473v24.021c0,11.724-8.162,16.9-18.1,16.9s-18.1-5.172-18.1-16.9"/>
      <path id="Path_100" data-name="Path 100" d="M95.508-21.94h13.333c3.849,0,6.779-2.3,6.779-6.034,0-3.793-2.93-6.092-6.779-6.092H95.508ZM125.39-1.079v.4h-7.931L107.577-15.33H95.508V-.678h-7.47V-40.9h21.435c7.644,0,13.618,5.229,13.618,12.813a12.3,12.3,0,0,1-8.044,11.782Z"/>
      <path id="Path_101" data-name="Path 101" d="M169.353-22.975V-7.458A23.484,23.484,0,0,1,151.481.012C137.343.012,129.3-9.47,129.3-20.676c0-11.493,8.275-20.917,21.378-20.917,8.446,0,15.054,4.08,18.043,10.285l-6.377,3.448c-1.783-3.909-5.632-6.723-11.553-6.723-8.733,0-13.963,6.034-13.963,13.849,0,7.7,5.056,13.849,14.654,13.849a16.437,16.437,0,0,0,11.032-3.791v-5.863H151.537v-6.437Z"/>
      <path id="Path_102" data-name="Path 102" d="M201.073-15.331l-7.355-17.011-7.3,17.011ZM215.267-1.2v.518h-7.931l-3.391-7.931h-20.4L180.1-.677h-7.931V-1.2L190.038-40.9h7.415Z"/>
      <path id="Path_103" data-name="Path 103" d="M258.251-40.9V-.677h-6.608l-22.7-27.988V-.677h-7.471V-40.9h6.608l22.7,27.988V-40.9Z"/>
    </g>
    <rect id="Rectangle_10" data-name="Rectangle 10" width="259" height="43" transform="translate(77 5173.019)" fill="none" opacity="0.2"/>
    <path id="Path_105" data-name="Path 105" d="M0,0H258.25V-41.594H0Z" transform="translate(77 5215.019)" fill="none" opacity="0.2"/>
  </g>
</svg>
