<svg xmlns="http://www.w3.org/2000/svg" xmlns:xlink="http://www.w3.org/1999/xlink" width="263.409" height="71.546" viewBox="0 0 263.409 71.546">
  <defs>
    <clipPath id="clip-path">
      <path id="Path_87" data-name="Path 87" d="M0,0H263.409V-71.547H0Z" fill="none"/>
    </clipPath>
  </defs>
  <g id="Group_37" data-name="Group 37" transform="translate(0 71.546)" opacity="0.2" clip-path="url(#clip-path)">
    <path id="Path_79" data-name="Path 79" d="M7.53-23.252H22.971a6,6,0,0,1,3.843,1.133,4.1,4.1,0,0,1,1.374,3.385v5.883A4.44,4.44,0,0,1,26.674-9.1a6.561,6.561,0,0,1-4.159,1.221H7.53Zm19.608-11.59a5.014,5.014,0,0,1-1.205,3.475,4.857,4.857,0,0,1-3.766,1.319H7.53V-43.77H22.164c3.347.023,4.974,1.511,4.974,4.552Zm1.126,7.969a11.233,11.233,0,0,0,4.71-4.1,13.494,13.494,0,0,0,2.044-7.51c0-4.256-1.464-7.45-4.352-9.495a12.3,12.3,0,0,0-4.907-2.072,34.68,34.68,0,0,0-6.374-.514H0V-1.084H19.716a26.129,26.129,0,0,0,7.257-.909,13.318,13.318,0,0,0,5.273-2.83c2.536-2.368,3.822-6.011,3.822-10.829A11.541,11.541,0,0,0,33.7-23.122a11.909,11.909,0,0,0-5.433-3.75"/>
    <path id="Path_80" data-name="Path 80" d="M72.939-38.8v5.392a5.447,5.447,0,0,1-1.349,3.69,4.862,4.862,0,0,1-3.9,1.529H54V-43.77H67.686a5.476,5.476,0,0,1,3.859,1.306A4.786,4.786,0,0,1,72.939-38.8m.837,15.6a12.722,12.722,0,0,0,3.441-2.433,11.476,11.476,0,0,0,2.762-4.641,19.754,19.754,0,0,0,.841-5.938,19.583,19.583,0,0,0-.893-6.187,10.827,10.827,0,0,0-2.9-4.541,12.524,12.524,0,0,0-4.988-2.739,24.032,24.032,0,0,0-6.842-.89H46.467V-1.084H54v-20.59h7.46L72.874-1.084H81.5L69.412-21.958A14.9,14.9,0,0,0,73.776-23.2"/>
    <path id="Path_81" data-name="Path 81" d="M120.664-18.278c0,3.605-.982,6.474-2.916,8.527s-4.74,3.095-8.358,3.095c-3.6,0-6.383-1.035-8.286-3.073s-2.883-4.923-2.883-8.549V-50.566h-7.53V-18.8A22.059,22.059,0,0,0,92.01-10.96a16.243,16.243,0,0,0,3.775,5.9A16.884,16.884,0,0,0,101.7-1.319,21.506,21.506,0,0,0,109.39,0a21.86,21.86,0,0,0,7.735-1.317,17,17,0,0,0,5.957-3.739,16.281,16.281,0,0,0,3.789-5.9A21.994,21.994,0,0,0,128.2-18.8V-50.566h-7.532Z"/>
    <path id="Path_82" data-name="Path 82" d="M176.785-50.566h-9.25l-19.87,22.348V-50.566h-7.53V-1.084h7.53V-26.659L169.211-1.208l.106.124h9.228L155.872-27.446Z"/>
    <path id="Path_83" data-name="Path 83" d="M185.235-1.084h33.058v-6.8H192.765V-22.9H215v-6.8H192.765V-43.77h25.528v-6.8H185.235Z"/>
    <path id="Path_84" data-name="Path 84" d="M254.848-38.8v5.392a5.445,5.445,0,0,1-1.349,3.69,4.863,4.863,0,0,1-3.9,1.529H235.906V-43.77H249.6a5.476,5.476,0,0,1,3.859,1.306,4.786,4.786,0,0,1,1.394,3.666m-3.526,16.84a14.917,14.917,0,0,0,4.365-1.239,12.716,12.716,0,0,0,3.44-2.433,11.483,11.483,0,0,0,2.762-4.641,19.756,19.756,0,0,0,.84-5.938,19.581,19.581,0,0,0-.893-6.187,10.839,10.839,0,0,0-2.9-4.541,12.52,12.52,0,0,0-4.989-2.739,24.017,24.017,0,0,0-6.841-.89H228.376V-1.084h7.53v-20.59h7.46l11.416,20.59h8.628Z"/>
    <path id="Path_85" data-name="Path 85" d="M90.691-57.56h18.753v-6.994H90.691Z"/>
    <path id="Path_86" data-name="Path 86" d="M109.444-64.553H128.2v-6.994H109.444Z"/>
  </g>
</svg>
