<svg xmlns="http://www.w3.org/2000/svg" width="82.507" height="108.339" viewBox="0 0 82.507 108.339">
  <g id="Group_107" data-name="Group 107" transform="translate(-164.747 -7118.896)">
    <path id="Path_164" data-name="Path 164" d="M51.57-151.782l-.614.544-14.945,13.1,6.364,7.236,0,0v0H60.766v-.014l6.349-7.221-14.944-13.1Zm.6,15.788v-13.643L65.4-138.025l-4.978,5.65Zm-14.444-2.031,13.228-11.612v13.643L42.7-132.375Zm7.422,5.907,6.421-2.8,6.408,2.8H45.149Z" transform="translate(154.44 7270.678)"/>
    <path id="Path_165" data-name="Path 165" d="M41.254-114.8A39.869,39.869,0,0,1,81.077-74.974,39.868,39.868,0,0,1,41.254-35.15,39.869,39.869,0,0,1,1.43-74.974,39.869,39.869,0,0,1,41.254-114.8m0,81.078A41.3,41.3,0,0,0,82.507-74.974a41.3,41.3,0,0,0-41.253-41.254A41.3,41.3,0,0,0,0-74.974,41.3,41.3,0,0,0,41.254-33.72" transform="translate(164.747 7260.501)"/>
    <path id="Path_166" data-name="Path 166" d="M20.855-87.835l-3.5-3.739.014-.013,5.088,2.253.767-.718-1.918-5.219.012-.012,3.5,3.74.854-.8-4.617-4.934-1.268,1.187,1.855,5.126-4.964-2.217-1.3,1.212L20-87.035Z" transform="translate(160.344 7255.078)"/>
    <path id="Path_167" data-name="Path 167" d="M34.688-99.557,32.181-98.25l-.14-3.325ZM32.3-95.28l-.083-1.709,3.457-1.8,1.343,1.052,1.238-.645-6.036-4.479-1.336.7.171,7.535Z" transform="translate(155.907 7256.677)"/>
    <path id="Path_168" data-name="Path 168" d="M44.735-106.47c1.05-.239,1.619-.205,1.793.564s-.322,1.055-1.373,1.292l-2.482.562-.42-1.856ZM43.5-100.394l-.587-2.59,2.038-.462,2.5,2.158,1.583-.359-2.626-2.223a1.912,1.912,0,0,0,1.4-2.355c-.366-1.612-1.569-1.711-3.126-1.357l-3.958.9,1.491,6.583Z" transform="translate(153.09 7258.075)"/>
    <path id="Path_169" data-name="Path 169" d="M58.244-107.776c1.542.059,2.676.864,2.614,2.491a2.294,2.294,0,0,1-.784,1.777,2.137,2.137,0,0,0-1.743-1.434l-.042,1.134a1.11,1.11,0,0,1,.743.772,3.782,3.782,0,0,1-.971.085c-1.265-.047-2.686-.623-2.614-2.537.061-1.627,1.253-2.345,2.8-2.288m-.225,5.959a4.9,4.9,0,0,0,1.768-.214,2.581,2.581,0,0,0,2.34,1.149l.043-1.134a1.633,1.633,0,0,1-1.339-.525,3.357,3.357,0,0,0,1.345-2.621c.069-1.849-.915-3.637-3.89-3.749s-4.091,1.6-4.16,3.447c-.053,1.4.7,3.526,3.894,3.647" transform="translate(149.255 7258.409)"/>
    <path id="Path_170" data-name="Path 170" d="M70.9-99.9c2.1.666,3.69.236,4.349-1.838l1.167-3.676-1.258-.4-1.14,3.588c-.338,1.064-.994,1.811-2.775,1.246s-1.885-1.556-1.549-2.619l1.141-3.588-1.258-.4-1.169,3.677c-.658,2.074.391,3.343,2.491,4.011" transform="translate(145.223 7258.028)"/>
    <path id="Path_171" data-name="Path 171" d="M84.452-93.27l.6-.961L80.942-96.8l.947-1.513,3.458,2.165.6-.961-3.458-2.165.832-1.331L87.341-98.1l.6-.961-5.137-3.215-3.585,5.728Z" transform="translate(142.072 7256.507)"/>
    <path id="Path_172" data-name="Path 172" d="M89.654-101.5l-1.1-.69L87-101.6l.693.434Z" transform="translate(139.846 7256.485)"/>
    <path id="Path_173" data-name="Path 173" d="M92.985-89.286c.595.773.743,1.334.433,1.641-.418.412-1.3.027-2.056-.74-1.257-1.27-1.1-2.131-.922-2.651l-1.182-.624c-.251.473-.773,1.983,1.27,4.046,1.271,1.284,2.766,1.948,3.9.823.806-.8.595-1.846-.307-3.087l-.954-1.308c-.831-1.075-.73-1.41-.525-1.614.443-.438,1.236.046,1.864.68,1.133,1.145,1.149,1.9.87,2.479l1.168.6c.214-.447.818-1.752-1.23-3.822-.367-.37-2.219-2.241-3.66-.814-.735.728-.6,1.827.346,3.088Z" transform="translate(139.27 7254.2)"/>
    <path id="Path_174" data-name="Path 174" d="M44.1-29.212A34.2,34.2,0,0,0,78.258-63.371,34.011,34.011,0,0,0,75.97-75.688l-1.333.517a32.573,32.573,0,0,1,2.192,11.8A32.766,32.766,0,0,1,44.1-30.642,32.766,32.766,0,0,1,11.37-63.371a32.566,32.566,0,0,1,2.193-11.8l-1.334-.517A34.011,34.011,0,0,0,9.94-63.371,34.2,34.2,0,0,0,44.1-29.212" transform="translate(161.901 7248.899)"/>
    <path id="Path_175" data-name="Path 175" d="M46.944-43.65A25.663,25.663,0,0,1,21.309-69.285,25.664,25.664,0,0,1,46.944-94.921,25.664,25.664,0,0,1,72.579-69.285,25.663,25.663,0,0,1,46.944-43.65m0-52.7A27.1,27.1,0,0,0,19.879-69.285,27.1,27.1,0,0,0,46.944-42.22,27.1,27.1,0,0,0,74.009-69.285,27.1,27.1,0,0,0,46.944-96.351" transform="translate(159.057 7254.813)"/>
    <path id="Path_176" data-name="Path 176" d="M41.09-77.98H63.744v5.865a6.7,6.7,0,0,0-5.306-2.636,6.723,6.723,0,0,0-6.021,3.776A6.722,6.722,0,0,0,46.4-74.751a6.7,6.7,0,0,0-5.306,2.636Zm-1.43,9.965v17.484h1.43V-68.015A5.312,5.312,0,0,1,46.4-73.321,5.311,5.311,0,0,1,51.7-68.015v17.484h1.43V-68.015a5.312,5.312,0,0,1,5.307-5.306,5.311,5.311,0,0,1,5.306,5.306v17.484h1.43V-79.41H39.66Z" transform="translate(153.395 7249.964)"/>
    <path id="Path_177" data-name="Path 177" d="M98.423-6.712h.893a2.746,2.746,0,0,1,.371.06.417.417,0,0,1,.251.193.462.462,0,0,1,.078.292.49.49,0,0,1-.175.388.831.831,0,0,1-.525.155h-.893Zm0,1.595h.35l.465.136a.249.249,0,0,1,.078.058,3.322,3.322,0,0,1,.544.777l.331.582h.7l-.427-.718L99.919-5a.981.981,0,0,0-.31-.193,1.122,1.122,0,0,0,.757-.331.948.948,0,0,0,.292-.7.856.856,0,0,0-.174-.525.853.853,0,0,0-.467-.35,2.112,2.112,0,0,0-.7-.1c-.057,0-.135-.019-.214-.019H97.839v3.652h.584Z" transform="translate(136.743 7229.3)"/>
    <path id="Path_178" data-name="Path 178" d="M95.743-6.074a2.849,2.849,0,0,1,.387-1.42,2.724,2.724,0,0,1,1.052-1.049,2.987,2.987,0,0,1,1.378-.369h.018a3,3,0,0,1,1.382.369,2.744,2.744,0,0,1,1.049,1.049,2.822,2.822,0,0,1,.37,1.42,2.8,2.8,0,0,1-.37,1.4,2.617,2.617,0,0,1-1.029,1.029,2.8,2.8,0,0,1-1.4.371H98.56a2.785,2.785,0,0,1-1.4-.371,2.633,2.633,0,0,1-1.03-1.029,2.832,2.832,0,0,1-.387-1.4M96.89-3.161a3.245,3.245,0,0,0,1.67.449h.018a3.258,3.258,0,0,0,1.674-.449A2.944,2.944,0,0,0,101.495-4.4a3.327,3.327,0,0,0,.449-1.671,3.372,3.372,0,0,0-.449-1.712,2.992,2.992,0,0,0-1.264-1.243,3.45,3.45,0,0,0-1.652-.446H98.56a3.672,3.672,0,0,0-1.652.446,3.129,3.129,0,0,0-1.264,1.243A3.369,3.369,0,0,0,95.2-6.074,3.323,3.323,0,0,0,95.645-4.4,2.944,2.944,0,0,0,96.89-3.161" transform="translate(137.499 7229.947)"/>
    <path id="Path_179" data-name="Path 179" d="M0-43.443H82.507V-151.781H0Z" transform="translate(164.747 7270.678)" fill="none"/>
  </g>
</svg>
