<svg xmlns="http://www.w3.org/2000/svg" xmlns:xlink="http://www.w3.org/1999/xlink" width="206.039" height="60.404" viewBox="0 0 206.039 60.404">
  <defs>
    <clipPath id="clip-path">
      <path id="Path_181" data-name="Path 181" d="M0-102.6H205.669V-163H0Z" transform="translate(0 163)" fill="none"/>
    </clipPath>
    <clipPath id="clip-path-2">
      <path id="Path_193" data-name="Path 193" d="M0-102.4H205.372v-60.289H0Z" transform="translate(0 162.691)" fill="none"/>
    </clipPath>
  </defs>
  <g id="Group_106" data-name="Group 106" transform="translate(-102.943 -7010.662)">
    <g id="Group_85" data-name="Group 85" transform="translate(103.314 7010.662)" opacity="0.2" clip-path="url(#clip-path)">
      <path id="Path_180" data-name="Path 180" d="M21.636-74.582l-7.7,17.97L6.367-74.582H0v24.239H4.2v-18.37h.067l7.8,18.37h3.767L23.6-68.714h.066v18.37h4.2V-74.582Z" transform="translate(0 107.348)"/>
    </g>
    <g id="Group_86" data-name="Group 86" transform="translate(103.314 7010.777)" opacity="0.2" clip-path="url(#clip-path-2)">
      <path id="Path_182" data-name="Path 182" d="M175.044-63.813v-6.835h9.135c3.867,0,5.835.567,5.835,3.4,0,2.867-1.967,3.434-5.835,3.434Zm12.935,3.6a6.86,6.86,0,0,0,6.768-7.134c0-5.934-4.134-7.235-9.868-7.235H170.31v24.238h4.734v-9.535h7.5l7.035,9.535h5.834Z" transform="translate(-107.198 107.233)"/>
      <path id="Path_183" data-name="Path 183" d="M267.632-57.1c-1-1.934-2.567-4.6-6.434-4.9v4.067a3.982,3.982,0,0,1,2.767,2.667,13.519,13.519,0,0,1-3.467.434c-4.534,0-9.7-1.867-9.7-8.734,0-5.834,4.167-8.568,9.7-8.568s9.7,2.734,9.7,8.568a8.213,8.213,0,0,1-2.567,6.468m7.3-6.2c0-6.634-3.767-12.9-14.436-12.9s-14.436,6.268-14.436,12.9c0,5.035,2.967,12.536,14.436,12.536a17.607,17.607,0,0,0,6.3-1c3.167,3.7,5.534,3.8,8.535,3.8V-52.03c-2.467-.034-3.3-.3-4.868-1.7a12.043,12.043,0,0,0,4.468-9.568" transform="translate(-154.878 108.252)"/>
      <path id="Path_184" data-name="Path 184" d="M356.223-61.079c0,4-1.433,7.267-8.134,7.267s-8.134-3.267-8.134-7.267v-13.5H335.22v13.836c0,7.8,4.968,11,12.869,11s12.869-3.2,12.869-11V-74.582h-4.734Z" transform="translate(-210.996 107.233)"/>
      <path id="Path_185" data-name="Path 185" d="M424.883-60.812h14.636v-4.067H424.883v-5.635h17v-4.067H420.149v24.238h22.137v-4.068h-17.4Z" transform="translate(-264.453 107.233)"/>
      <path id="Path_186" data-name="Path 186" d="M447.849-92.214h-4.668l-3.6,4.767h2.934Z" transform="translate(-276.684 118.331)"/>
      <path id="Path_187" data-name="Path 187" d="M502.358-65.632l-5.734-.867c-4.834-.6-5.434-1.7-5.434-2.734,0-2.233,3.234-3.033,6.435-3.033,5.767,0,7.735,1.867,8.5,4.033l4.468-1.467c-.6-1.667-2.4-6.5-12.836-6.5-1.867,0-11.3,0-11.3,7.268,0,3.7,3.134,6.134,8.735,6.9l5.8.8c3.467.434,5.267,1.467,5.267,3.034,0,2.1-3.2,3.367-7.068,3.367-6.4,0-8.2-2.567-9.068-4.334l-4.567,1.434c.567,1.834,3.1,6.968,13.5,6.968,6.468,0,11.935-2.134,11.935-7.868,0-4.067-3.2-6.167-8.635-7" transform="translate(-305.621 108.252)"/>
      <path id="Path_188" data-name="Path 188" d="M137.482-151.922v-6.835h9.135c3.867,0,5.835.567,5.835,3.4,0,2.867-1.967,3.434-5.835,3.434Zm20.37,13.469-7.435-9.869a6.86,6.86,0,0,0,6.768-7.134c0-5.934-4.134-7.235-9.868-7.235H132.748v24.238h4.734v-9.535h7.5l7.035,9.535Z" transform="translate(-83.555 162.691)"/>
      <path id="Path_189" data-name="Path 189" d="M234.466-158.624v-4.068H212.729v24.238h22.137v-4.068h-17.4v-6.4H232.1v-4.067H217.463v-5.635Z" transform="translate(-133.897 162.691)"/>
      <path id="Path_190" data-name="Path 190" d="M285.275-148.088l5.068-10.8,5.068,10.8Zm2.367-14.6-11.935,24.238h5.034l2.567-5.568h13.97l2.534,5.568h5l-11.769-24.238Z" transform="translate(-173.537 162.691)"/>
      <path id="Path_191" data-name="Path 191" d="M385.009-142.654h-17.57v-20.037h-4.734v24.238h22.3Z" transform="translate(-228.296 162.691)"/>
      <path id="Path_192" data-name="Path 192" d="M92.88-59.979l5.068-10.8,5.068,10.8Zm2.367-14.6L83.311-50.344h5.034l2.567-5.568h13.969l2.534,5.568h5L100.648-74.581Z" transform="translate(-52.438 107.233)"/>
    </g>
    <rect id="Rectangle_14" data-name="Rectangle 14" width="206.039" height="60.404" transform="translate(102.943 7010.662)" fill="none" opacity="0.2"/>
    <path id="Path_194" data-name="Path 194" d="M0-102.4H205.372v-60.289H0Z" transform="translate(103.314 7173.468)" fill="none" opacity="0.2"/>
  </g>
</svg>
