<svg xmlns="http://www.w3.org/2000/svg" xmlns:xlink="http://www.w3.org/1999/xlink" width="236.825" height="30.585" viewBox="0 0 236.825 30.585">
  <defs>
    <clipPath id="clip-path">
      <path id="Path_134" data-name="Path 134" d="M0-13.675H236.825V-44.26H0Z" transform="translate(0 44.26)" fill="#c0bfbd"/>
    </clipPath>
  </defs>
  <g id="Group_66" data-name="Group 66" clip-path="url(#clip-path)">
    <path id="Path_128" data-name="Path 128" d="M322.9-43.071a3.979,3.979,0,0,0-3.145-1.19H296.341a9.1,9.1,0,0,0-6.032,2.018,10.918,10.918,0,0,0-3.415,4.949l-5.732,16.652a4.6,4.6,0,0,0,.75,4.949,6.883,6.883,0,0,0,5.414,2.018h21.845a7.335,7.335,0,0,0,3.979-1.189,5.64,5.64,0,0,0,2.472-2.889l2.345-6.839H307.7l-1.109,3.186a.47.47,0,0,1-.516.34h-13.83q-.681,0-.517-.552l4.168-12.05-3.522-3.19h5.244c.031,0,.058-.01.091-.01h13.83q.418,0,.27.34l-1.057,3.186H321.02l2.345-6.839a2.73,2.73,0,0,0-.462-2.888" transform="translate(-86.751 44.261)" fill="#c0bfbd"/>
    <path id="Path_129" data-name="Path 129" d="M88.222-44.261,84.239-32.791H69.1l3.983-11.469H62.815L52.229-13.675H62.5l3.056-8.863L62.4-25.395h4.139l0-.005H81.678L77.636-13.675H87.9L98.489-44.261Z" transform="translate(-16.137 44.261)" fill="#c0bfbd"/>
    <path id="Path_130" data-name="Path 130" d="M151.548-44.261H123.654a4.789,4.789,0,0,0-4.6,3.057l-7.567,21.863c-.972,2.809,1.345,5.665,4.6,5.665h24.875l2.561-7.391H122.359l.863-2.5-2.546-2.305h22.149l2.144-6.2H126.163l.625-1.808L123.5-36.859h4.325l0-.01h21.164Z" transform="translate(-34.378 44.261)" fill="#c0bfbd"/>
    <path id="Path_131" data-name="Path 131" d="M193.08-44.261l-2.561,7.392H203.2l-8.025,23.194h10.268l6.885-19.9L208.7-36.859h4.764l0-.01h12.677l2.561-7.392Z" transform="translate(-58.864 44.261)" fill="#c0bfbd"/>
    <path id="Path_132" data-name="Path 132" d="M39.76-42.243a6.8,6.8,0,0,0-5.388-2.018H16.089A10.17,10.17,0,0,0,9.8-42.243a10.261,10.261,0,0,0-3.677,4.949L4.5-32.536a4.6,4.6,0,0,0,.75,4.949,6.882,6.882,0,0,0,5.414,2.018H25.545q.68,0,.465.552l-1.176,3.4a.775.775,0,0,1-.845.552H11.47q-.682,0-.518-.552l.633-1.742H1.317L.387-20.642a4.6,4.6,0,0,0,.75,4.949,6.882,6.882,0,0,0,5.414,2.018H25.1a9.513,9.513,0,0,0,6.137-2.018A10.99,10.99,0,0,0,34.8-20.642L36.42-25.4a4.6,4.6,0,0,0-.75-4.949,6.886,6.886,0,0,0-5.415-2.018H15.378q-.682,0-.518-.552l.369-1.064-3.176-2.876h4.79c.032,0,.058-.01.091-.01h12.52q.68,0,.465.552l-.581,1.742H39.606l.93-2.719a4.71,4.71,0,0,0-.776-4.949" transform="translate(0 44.261)" fill="#c0bfbd"/>
    <path id="Path_133" data-name="Path 133" d="M271.351-44.261H243.457a4.789,4.789,0,0,0-4.6,3.057l-7.567,21.863c-.972,2.809,1.345,5.665,4.6,5.665h24.875l2.561-7.391H242.162l.863-2.5-2.546-2.305h22.149l2.144-6.2H245.966l.625-1.808L243.3-36.859h4.325l0-.01H268.79Z" transform="translate(-71.393 44.261)" fill="#c0bfbd"/>
  </g>
</svg>
