<svg xmlns="http://www.w3.org/2000/svg" width="34.322" height="66.842" viewBox="0 0 34.322 66.842">
  <path id="Path_136" data-name="Path 136" d="M27.514-65.166a7,7,0,0,0,7-7V-72.4a9.061,9.061,0,0,1,9.061-9.061A9.061,9.061,0,0,1,52.639-72.4a9.061,9.061,0,0,1-9.061,9.061,7.166,7.166,0,0,0-7.166,7.166,7.166,7.166,0,0,0,7.166,7.166l.064-.014A9.306,9.306,0,0,1,52.767-39.9a9.125,9.125,0,0,1-9.125,9.125,6.959,6.959,0,0,0-7.1,7.106,9.19,9.19,0,0,1-9.046,9.046,9.046,9.046,0,0,1-9.046-9.046,9.046,9.046,0,0,1,9.046-9.046A7.032,7.032,0,0,0,34.517-39.9a7,7,0,0,0-7.026-7.144,9.046,9.046,0,0,1-9.046-9.046,9.046,9.046,0,0,1,9.046-9.046Z" transform="translate(-18.445 81.462)"/>
</svg>
